<svg xmlns="http://www.w3.org/2000/svg" width="157.63" height="35" viewBox="0 0 157.63 35"><rect class="svg__rect" x="0" y="0" width="99.92" height="35" fill="#7531F3"/><rect class="svg__rect" x="97.92" y="0" width="59.70999999999998" height="35" fill="#4638D5"/><path class="svg__text" d="M13.95 18.19L13.95 18.19L13.95 17.39Q13.95 16.19 14.38 15.27Q14.80 14.35 15.60 13.85Q16.40 13.35 17.45 13.35L17.45 13.35Q18.86 13.35 19.73 14.12Q20.59 14.89 20.73 16.29L20.73 16.29L19.25 16.29Q19.14 15.37 18.71 14.96Q18.28 14.55 17.45 14.55L17.45 14.55Q16.48 14.55 15.97 15.26Q15.45 15.96 15.44 17.33L15.44 17.33L15.44 18.09Q15.44 19.47 15.93 20.20Q16.43 20.92 17.38 20.92L17.38 20.92Q18.25 20.92 18.69 20.53Q19.13 20.14 19.25 19.22L19.25 19.22L20.73 19.22Q20.60 20.59 19.72 21.35Q18.84 22.12 17.38 22.12L17.38 22.12Q16.36 22.12 15.59 21.63Q14.81 21.15 14.39 20.26Q13.97 19.37 13.95 18.19ZM26.52 22L25.04 22L25.04 13.47L26.52 13.47L26.52 17.02L30.34 17.02L30.34 13.47L31.81 13.47L31.81 22L30.34 22L30.34 18.21L26.52 18.21L26.52 22ZM42.13 22L36.55 22L36.55 13.47L42.09 13.47L42.09 14.66L38.04 14.66L38.04 17.02L41.54 17.02L41.54 18.19L38.04 18.19L38.04 20.82L42.13 20.82L42.13 22ZM46.06 18.19L46.06 18.19L46.06 17.39Q46.06 16.19 46.48 15.27Q46.91 14.35 47.71 13.85Q48.51 13.35 49.56 13.35L49.56 13.35Q50.97 13.35 51.83 14.12Q52.70 14.89 52.84 16.29L52.84 16.29L51.36 16.29Q51.25 15.37 50.82 14.96Q50.39 14.55 49.56 14.55L49.56 14.55Q48.59 14.55 48.08 15.26Q47.56 15.96 47.55 17.33L47.55 17.33L47.55 18.09Q47.55 19.47 48.04 20.20Q48.54 20.92 49.49 20.92L49.49 20.92Q50.36 20.92 50.80 20.53Q51.24 20.14 51.36 19.22L51.36 19.22L52.84 19.22Q52.71 20.59 51.83 21.35Q50.95 22.12 49.49 22.12L49.49 22.12Q48.47 22.12 47.69 21.63Q46.92 21.15 46.50 20.26Q46.07 19.37 46.06 18.19ZM58.63 22L57.15 22L57.15 13.47L58.63 13.47L58.63 17.47L59.45 16.46L61.95 13.47L63.74 13.47L60.57 17.25L63.92 22L62.16 22L59.60 18.31L58.63 19.34L58.63 22ZM75.24 22L73.77 22L73.77 13.47L75.24 13.47L75.24 22ZM81.73 14.66L79.10 14.66L79.10 13.47L85.87 13.47L85.87 14.66L83.21 14.66L83.21 22L81.73 22L81.73 14.66Z" fill="#FFFFFF"/><path class="svg__text" d="M111.68 17.80L111.68 17.80Q111.68 16.55 112.28 15.55Q112.89 14.56 113.95 14.00Q115.01 13.43 116.34 13.43L116.34 13.43Q117.67 13.43 118.74 14.00Q119.80 14.56 120.41 15.55Q121.01 16.55 121.01 17.80L121.01 17.80Q121.01 19.05 120.41 20.04Q119.80 21.04 118.74 21.60Q117.68 22.17 116.34 22.17L116.34 22.17Q115.01 22.17 113.95 21.60Q112.89 21.04 112.28 20.04Q111.68 19.05 111.68 17.80ZM114.08 17.80L114.08 17.80Q114.08 18.51 114.38 19.05Q114.68 19.60 115.20 19.90Q115.71 20.20 116.34 20.20L116.34 20.20Q116.98 20.20 117.50 19.90Q118.01 19.60 118.31 19.05Q118.61 18.51 118.61 17.80L118.61 17.80Q118.61 17.09 118.31 16.54Q118.01 16 117.50 15.70Q116.98 15.40 116.34 15.40L116.34 15.40Q115.71 15.40 115.19 15.70Q114.68 16 114.38 16.54Q114.08 17.09 114.08 17.80ZM125.67 18.26L125.67 18.26L125.67 13.60L128.05 13.60L128.05 18.19Q128.05 20.20 129.65 20.20L129.65 20.20Q131.23 20.20 131.23 18.19L131.23 18.19L131.23 13.60L133.57 13.60L133.57 18.26Q133.57 20.13 132.53 21.15Q131.49 22.17 129.62 22.17L129.62 22.17Q127.75 22.17 126.71 21.15Q125.67 20.13 125.67 18.26ZM140.45 15.48L137.87 15.48L137.87 13.60L145.39 13.60L145.39 15.48L142.82 15.48L142.82 22L140.45 22L140.45 15.48Z" fill="#FFFFFF" x="110.92"/></svg>